<?xml version="1.0" standalone="no"?>
<!DOCTYPE svg PUBLIC "-//W3C//DTD SVG 20010904//EN"
 "http://www.w3.org/TR/2001/REC-SVG-20010904/DTD/svg10.dtd">
<svg version="1.0" xmlns="http://www.w3.org/2000/svg"
 width="1024.000000pt" height="1024.000000pt" viewBox="0 0 1024.000000 1024.000000"
 preserveAspectRatio="xMidYMid meet">
<metadata>
Created by potrace 1.14, written by Peter Selinger 2001-2017
</metadata>
<g transform="translate(0.000000,1024.000000) scale(0.100000,-0.100000)"
fill="#000000" stroke="none">
<path d="M0 5120 l0 -5120 5120 0 5120 0 0 5120 0 5120 -5120 0 -5120 0 0
-5120z m5178 2963 c139 -626 255 -1139 257 -1141 21 -21 57 104 330 1142 l299
1136 441 0 441 0 299 -1141 c180 -685 305 -1143 313 -1146 7 -3 15 -4 17 -1 3
2 118 518 257 1146 l253 1142 558 0 c439 0 557 -3 557 -12 0 -7 -245 -841
-543 -1853 l-543 -1840 -482 -3 -481 -2 -16 52 c-8 29 -149 494 -314 1033
-222 732 -302 981 -314 983 -19 4 10 95 -352 -1098 -146 -481 -273 -896 -281
-923 l-16 -47 -480 2 -481 3 -426 1445 -426 1445 -563 3 -562 2 0 -1450 0
-1450 -495 0 -495 0 0 1450 0 1450 -560 0 -560 0 0 405 0 405 2058 0 2058 0
252 -1137z m-378 -3488 l0 -274 -872 -1166 c-480 -641 -874 -1170 -876 -1175
-2 -7 308 -10 867 -10 l871 0 0 -405 0 -405 -1512 2 -1513 3 -3 276 -2 275
877 1170 876 1169 -871 3 -872 2 0 405 0 405 1515 0 1515 0 0 -275z m2437 260
c335 -44 594 -163 793 -364 222 -223 330 -513 330 -883 0 -346 -94 -606 -298
-820 -87 -91 -153 -144 -254 -201 l-75 -43 373 -684 c206 -377 374 -688 374
-692 0 -5 -243 -8 -539 -8 -404 0 -542 3 -548 12 -4 6 -152 282 -329 612
l-320 601 -177 3 -177 2 0 -615 0 -615 -500 0 -500 0 0 1855 0 1855 864 0
c722 0 884 -3 983 -15z"/>
<path d="M6390 3620 l0 -452 273 5 c215 4 284 8 331 22 140 40 232 112 284
223 25 53 27 67 27 192 0 117 -3 142 -23 192 -32 80 -105 156 -186 196 -115
56 -165 64 -448 69 l-258 5 0 -452z"/>
</g>
</svg>
